<?xml version="1.0" standalone="no"?>
<!DOCTYPE svg PUBLIC "-//W3C//DTD SVG 20010904//EN"
 "http://www.w3.org/TR/2001/REC-SVG-20010904/DTD/svg10.dtd">
<svg version="1.0" xmlns="http://www.w3.org/2000/svg"
 width="199.000000pt" height="199.000000pt" viewBox="0 0 199.000000 199.000000"
 preserveAspectRatio="xMidYMid meet">

<g transform="translate(0.000000,199.000000) scale(0.100000,-0.100000)"
fill="#000000" stroke="none">
<path d="M1057 1798 c-20 -4 -48 -14 -60 -23 -21 -13 -25 -13 -46 1 -14 10
-31 14 -48 9 -24 -6 -25 -7 -8 -25 18 -20 17 -20 -18 -20 -28 0 -44 -8 -72
-36 -20 -20 -34 -38 -31 -41 3 -3 -8 -29 -25 -57 -17 -31 -29 -67 -29 -88 0
-41 9 -53 24 -33 8 12 11 0 11 -49 0 -55 4 -68 24 -90 l25 -26 -33 -30 c-28
-26 -32 -34 -26 -63 4 -17 14 -44 21 -59 12 -23 12 -38 -1 -105 -28 -146 -20
-193 30 -193 12 0 58 17 101 37 43 21 82 39 86 41 4 2 16 -15 26 -37 18 -36
18 -44 6 -93 -24 -92 -46 -141 -89 -198 -77 -101 -86 -119 -79 -175 4 -27 11
-58 16 -68 5 -10 12 -42 14 -70 3 -29 9 -56 14 -61 16 -16 11 -62 -10 -88 -16
-21 -18 -33 -12 -69 7 -43 9 -44 54 -53 36 -7 58 -5 105 10 l58 19 6 60 c3 33
13 80 23 105 9 25 21 59 25 75 11 43 103 229 118 238 29 18 54 54 65 92 6 22
26 58 43 80 56 70 105 149 105 167 0 10 -26 74 -59 142 -45 95 -64 126 -82
131 -13 4 -37 16 -52 27 -21 15 -37 18 -64 13 l-36 -6 21 25 c11 14 23 42 26
61 4 20 13 38 21 41 8 3 23 20 33 38 15 26 18 42 12 79 -7 47 -7 47 13 30 20
-18 20 -17 13 31 -3 27 -12 56 -18 65 -10 12 -8 12 8 -1 11 -10 24 -18 27 -18
18 0 -13 76 -48 118 -24 29 -25 37 -2 33 4 0 7 3 7 8 0 19 -70 63 -109 68 -23
3 -38 9 -36 13 9 15 -49 27 -88 18z m45 -410 c-7 -7 -12 -8 -12 -2 0 14 12 26
19 19 2 -3 -1 -11 -7 -17z m-32 -8 c12 -8 9 -10 -12 -10 -16 0 -28 5 -28 10 0
13 20 13 40 0z m-130 -35 c-7 -9 -22 -15 -32 -13 -28 4 -21 24 7 20 15 -2 25
2 25 9 0 7 3 9 6 6 4 -4 1 -14 -6 -22z m175 -39 c0 -35 -3 -40 -27 -47 -20 -5
-34 -2 -53 13 -48 38 -23 80 45 75 34 -2 35 -4 35 -41z m-167 -33 c-2 -29 -9
-41 -31 -53 -27 -14 -29 -14 -48 9 -10 13 -19 31 -19 41 0 19 37 38 78 39 21
1 23 -3 20 -36z m136 -47 c-8 -21 -59 -39 -86 -30 -20 7 -16 10 32 25 30 9 56
17 57 18 1 1 0 -5 -3 -13z m-141 -71 c22 -18 36 -39 32 -44 -8 -14 -95 -74
-100 -69 -1 1 -4 26 -6 53 -3 45 14 96 31 95 3 -1 22 -16 43 -35z m311 22 c16
-11 12 -18 -36 -72 -58 -65 -92 -114 -85 -121 2 -3 14 10 26 28 l22 33 -4
-115 c-4 -91 -38 -291 -52 -308 -4 -5 -105 31 -105 38 0 4 17 47 39 95 35 79
38 90 28 128 -5 23 -11 52 -12 65 -1 12 -20 42 -42 65 -47 48 -55 67 -37 84
16 17 24 16 24 0 0 -7 16 -39 35 -71 19 -32 32 -62 29 -67 -3 -5 -1 -9 5 -9 5
0 12 15 16 33 9 43 46 105 84 141 17 17 31 34 31 40 0 6 -5 5 -12 -2 -15 -15
-28 -16 -28 -2 0 6 10 15 23 20 30 12 31 12 51 -3z m-404 -47 c0 -6 -11 -8
-27 -4 -40 10 -41 14 -5 14 18 0 32 -5 32 -10z m208 -51 c10 -16 21 -20 42
-17 28 4 28 4 16 -21 -7 -14 -15 -33 -18 -41 -3 -10 -15 1 -36 34 -18 28 -32
54 -32 58 0 15 15 8 28 -13z m-11 -141 c-3 -8 -6 -5 -6 6 -1 11 2 17 5 13 3
-3 4 -12 1 -19z m-10 -40 c-3 -8 -6 -5 -6 6 -1 11 2 17 5 13 3 -3 4 -12 1 -19z
m284 -206 c-13 -4 -41 16 -41 29 0 5 12 2 26 -8 15 -9 21 -19 15 -21z m-226
-144 c-7 -18 -21 -62 -30 -98 -9 -36 -23 -76 -30 -90 -7 -14 -17 -34 -20 -45
-5 -15 -12 -1 -24 50 -9 39 -21 76 -25 84 -10 16 100 131 126 131 15 0 16 -3
3 -32z"/>
</g>
</svg>
